<?xml version="1.0" standalone="no"?>
<!DOCTYPE svg PUBLIC "-//W3C//DTD SVG 20010904//EN"
 "http://www.w3.org/TR/2001/REC-SVG-20010904/DTD/svg10.dtd">
<svg version="1.0" xmlns="http://www.w3.org/2000/svg"
 width="500.000000pt" height="500.000000pt" viewBox="0 0 500.000000 500.000000"
 preserveAspectRatio="xMidYMid meet">
<metadata>
Created by potrace 1.14, written by Peter Selinger 2001-2017
</metadata>
<g transform="translate(0.000000,500.000000) scale(0.100000,-0.100000)"
fill="#000000" stroke="none">
<path d="M2226 3771 c-277 -77 -489 -304 -542 -579 -71 -373 147 -738 510
-854 117 -38 349 -34 456 6 11 4 76 -87 245 -344 127 -192 235 -349 242 -350
19 0 283 174 283 187 0 7 -100 165 -223 350 -122 186 -226 343 -229 349 -4 6
11 35 34 65 55 73 103 177 129 279 18 72 21 103 16 205 -6 135 -24 203 -82
313 -86 164 -248 303 -417 358 -113 37 -316 44 -422 15z m290 -112 c230 -41
416 -205 486 -429 31 -102 32 -254 0 -355 -50 -161 -172 -306 -318 -376 -288
-140 -620 -47 -793 221 -126 195 -126 465 0 661 80 123 205 218 344 262 87 28
186 33 281 16z"/>
<path d="M2256 3594 c-130 -31 -261 -133 -323 -250 -50 -95 -52 -117 -7 -64
52 61 129 134 190 180 60 45 196 115 241 125 18 3 35 11 38 16 9 13 -71 10
-139 -7z"/>
<path d="M3610 3246 l0 -151 375 -145 c206 -80 375 -148 375 -151 0 -4 -8 -9
-19 -12 -10 -2 -179 -66 -375 -142 l-356 -138 0 -148 c0 -82 3 -149 8 -148 4
0 264 105 577 232 l570 232 3 126 3 126 -373 151 c-205 83 -466 189 -580 235
l-208 85 0 -152z"/>
<path d="M797 3157 l-568 -231 3 -125 3 -125 574 -233 c316 -128 576 -233 578
-233 1 0 3 67 3 149 l0 149 -37 15 c-21 8 -188 72 -370 142 -183 71 -333 131
-333 135 0 4 166 72 370 151 l370 144 0 148 c0 111 -3 147 -12 146 -7 0 -269
-105 -581 -232z"/>
<path d="M1280 1282 c0 -90 2 -100 23 -120 25 -24 93 -30 127 -12 27 14 40 64
40 151 l0 79 -30 0 -30 0 0 -83 c0 -85 -8 -107 -42 -107 -27 0 -38 32 -38 114
0 74 -1 76 -25 76 -25 0 -25 0 -25 -98z"/>
<path d="M1540 1260 l0 -120 25 0 c23 0 24 3 27 73 l3 72 48 -72 c42 -63 52
-73 77 -73 l30 0 0 120 0 120 -30 0 -29 0 -3 -72 -3 -71 -45 71 c-38 61 -49
72 -72 72 l-28 0 0 -120z"/>
<path d="M1802 1358 c2 -17 11 -24 31 -26 l27 -3 0 -95 0 -94 30 0 30 0 0 94
0 95 28 3 c19 2 28 9 30 26 3 21 1 22 -88 22 -89 0 -91 -1 -88 -22z"/>
<path d="M2030 1260 l0 -120 30 0 c29 0 30 1 30 47 l0 46 36 -46 c31 -40 42
-47 71 -47 l35 0 -40 48 -40 47 24 28 c29 34 30 56 3 91 -18 23 -27 26 -85 26
l-64 0 0 -120z m98 71 c21 -13 10 -46 -16 -49 -19 -3 -22 1 -22 27 0 31 13 39
38 22z"/>
<path d="M2280 1260 l0 -120 70 0 c68 0 70 1 70 25 0 23 -4 25 -40 25 -36 0
-40 3 -40 25 0 23 4 25 41 25 36 0 40 2 37 23 -2 18 -10 23 -40 25 -30 3 -38
7 -38 23 0 16 7 19 40 19 36 0 40 3 40 25 0 24 -2 25 -70 25 l-70 0 0 -120z"/>
<path d="M2490 1260 l0 -120 30 0 c29 0 30 1 30 50 l0 50 35 0 c31 0 35 3 35
25 0 22 -4 25 -35 25 -28 0 -35 4 -35 20 0 17 7 20 40 20 36 0 40 3 40 25 0
24 -2 25 -70 25 l-70 0 0 -120z"/>
<path d="M2700 1260 l0 -120 25 0 c23 0 25 4 25 45 0 43 1 45 29 45 46 0 81
34 81 80 0 52 -26 70 -102 70 l-58 0 0 -120z m94 74 c32 -12 11 -64 -26 -64
-14 0 -18 8 -18 35 0 36 10 42 44 29z"/>
<path d="M2930 1260 l0 -120 70 0 c68 0 70 1 70 25 0 23 -4 25 -45 25 -41 0
-45 2 -45 25 0 23 4 25 40 25 33 0 40 3 40 19 0 16 -8 20 -37 23 -33 3 -38 6
-38 28 0 22 5 25 43 28 34 3 42 7 42 23 0 17 -7 19 -70 19 l-70 0 0 -120z"/>
<path d="M3140 1259 l0 -121 61 4 c56 4 65 8 95 41 25 27 34 46 34 72 0 80
-51 125 -140 125 l-50 0 0 -121z m116 50 c36 -40 8 -119 -43 -119 -22 0 -23 3
-23 68 0 38 3 71 6 74 9 10 42 -3 60 -23z"/>
<path d="M3400 1260 l0 -120 25 0 25 0 0 120 0 120 -25 0 -25 0 0 -120z"/>
<path d="M3585 1348 c-7 -18 -29 -72 -48 -120 l-35 -88 29 0 c22 0 30 6 35 25
6 22 11 25 55 25 44 0 51 -3 59 -25 7 -18 17 -25 35 -25 14 0 25 2 25 5 0 3
-21 57 -46 120 -41 103 -49 115 -71 115 -18 0 -27 -8 -38 -32z m65 -100 c0 -5
-11 -8 -25 -8 -27 0 -31 10 -14 42 11 21 12 21 25 -3 7 -13 13 -27 14 -31z"/>
</g>
</svg>
